<mxfile host="app.diagrams.net" agent="Mozilla/5.0 (Windows NT 10.0; Win64; x64) AppleWebKit/537.36 (KHTML, like Gecko) Chrome/133.0.0.0 Safari/537.36" version="26.1.0">
  <diagram name="PÃ¡gina-1" id="tlngv8iXOyc2YVxWV-I8">
    <mxGraphModel grid="1" page="1" gridSize="10" guides="1" tooltips="1" connect="1" arrows="1" fold="1" pageScale="1" pageWidth="827" pageHeight="1169" math="0" shadow="0">
      <root>
        <mxCell id="0" />
        <mxCell id="1" parent="0" />
        <mxCell id="6Y1uYxIbJXJmOSM6ijOe-14" value="Jugador" style="shape=table;startSize=30;container=1;collapsible=1;childLayout=tableLayout;fixedRows=1;rowLines=0;fontStyle=1;align=center;resizeLast=1;html=1;fillColor=#d5e8d4;strokeColor=#82b366;" vertex="1" parent="1">
          <mxGeometry x="10" y="90" width="310" height="180" as="geometry">
            <mxRectangle x="400" y="110" width="80" height="30" as="alternateBounds" />
          </mxGeometry>
        </mxCell>
        <mxCell id="6Y1uYxIbJXJmOSM6ijOe-15" value="" style="shape=tableRow;horizontal=0;startSize=0;swimlaneHead=0;swimlaneBody=0;fillColor=none;collapsible=0;dropTarget=0;points=[[0,0.5],[1,0.5]];portConstraint=eastwest;top=0;left=0;right=0;bottom=1;" vertex="1" parent="6Y1uYxIbJXJmOSM6ijOe-14">
          <mxGeometry y="30" width="310" height="30" as="geometry" />
        </mxCell>
        <mxCell id="6Y1uYxIbJXJmOSM6ijOe-16" value="PK" style="shape=partialRectangle;connectable=0;fillColor=none;top=0;left=0;bottom=0;right=0;fontStyle=1;overflow=hidden;whiteSpace=wrap;html=1;" vertex="1" parent="6Y1uYxIbJXJmOSM6ijOe-15">
          <mxGeometry width="30" height="30" as="geometry">
            <mxRectangle width="30" height="30" as="alternateBounds" />
          </mxGeometry>
        </mxCell>
        <mxCell id="6Y1uYxIbJXJmOSM6ijOe-17" value="id_jugador INT NOT NULL" style="shape=partialRectangle;connectable=0;fillColor=none;top=0;left=0;bottom=0;right=0;align=left;spacingLeft=6;fontStyle=5;overflow=hidden;whiteSpace=wrap;html=1;" vertex="1" parent="6Y1uYxIbJXJmOSM6ijOe-15">
          <mxGeometry x="30" width="280" height="30" as="geometry">
            <mxRectangle width="280" height="30" as="alternateBounds" />
          </mxGeometry>
        </mxCell>
        <mxCell id="6Y1uYxIbJXJmOSM6ijOe-18" value="" style="shape=tableRow;horizontal=0;startSize=0;swimlaneHead=0;swimlaneBody=0;fillColor=none;collapsible=0;dropTarget=0;points=[[0,0.5],[1,0.5]];portConstraint=eastwest;top=0;left=0;right=0;bottom=0;" vertex="1" parent="6Y1uYxIbJXJmOSM6ijOe-14">
          <mxGeometry y="60" width="310" height="30" as="geometry" />
        </mxCell>
        <mxCell id="6Y1uYxIbJXJmOSM6ijOe-19" value="" style="shape=partialRectangle;connectable=0;fillColor=none;top=0;left=0;bottom=0;right=0;editable=1;overflow=hidden;whiteSpace=wrap;html=1;" vertex="1" parent="6Y1uYxIbJXJmOSM6ijOe-18">
          <mxGeometry width="30" height="30" as="geometry">
            <mxRectangle width="30" height="30" as="alternateBounds" />
          </mxGeometry>
        </mxCell>
        <mxCell id="6Y1uYxIbJXJmOSM6ijOe-20" value="Nombre VARCHAR(10)" style="shape=partialRectangle;connectable=0;fillColor=none;top=0;left=0;bottom=0;right=0;align=left;spacingLeft=6;overflow=hidden;whiteSpace=wrap;html=1;" vertex="1" parent="6Y1uYxIbJXJmOSM6ijOe-18">
          <mxGeometry x="30" width="280" height="30" as="geometry">
            <mxRectangle width="280" height="30" as="alternateBounds" />
          </mxGeometry>
        </mxCell>
        <mxCell id="6Y1uYxIbJXJmOSM6ijOe-21" value="" style="shape=tableRow;horizontal=0;startSize=0;swimlaneHead=0;swimlaneBody=0;fillColor=none;collapsible=0;dropTarget=0;points=[[0,0.5],[1,0.5]];portConstraint=eastwest;top=0;left=0;right=0;bottom=0;" vertex="1" parent="6Y1uYxIbJXJmOSM6ijOe-14">
          <mxGeometry y="90" width="310" height="30" as="geometry" />
        </mxCell>
        <mxCell id="6Y1uYxIbJXJmOSM6ijOe-22" value="" style="shape=partialRectangle;connectable=0;fillColor=none;top=0;left=0;bottom=0;right=0;editable=1;overflow=hidden;whiteSpace=wrap;html=1;" vertex="1" parent="6Y1uYxIbJXJmOSM6ijOe-21">
          <mxGeometry width="30" height="30" as="geometry">
            <mxRectangle width="30" height="30" as="alternateBounds" />
          </mxGeometry>
        </mxCell>
        <mxCell id="6Y1uYxIbJXJmOSM6ijOe-23" value="Edad INT" style="shape=partialRectangle;connectable=0;fillColor=none;top=0;left=0;bottom=0;right=0;align=left;spacingLeft=6;overflow=hidden;whiteSpace=wrap;html=1;" vertex="1" parent="6Y1uYxIbJXJmOSM6ijOe-21">
          <mxGeometry x="30" width="280" height="30" as="geometry">
            <mxRectangle width="280" height="30" as="alternateBounds" />
          </mxGeometry>
        </mxCell>
        <mxCell id="Kytd1l6AJFmynb2f_fbJ-1" style="shape=tableRow;horizontal=0;startSize=0;swimlaneHead=0;swimlaneBody=0;fillColor=none;collapsible=0;dropTarget=0;points=[[0,0.5],[1,0.5]];portConstraint=eastwest;top=0;left=0;right=0;bottom=0;" vertex="1" parent="6Y1uYxIbJXJmOSM6ijOe-14">
          <mxGeometry y="120" width="310" height="30" as="geometry" />
        </mxCell>
        <mxCell id="Kytd1l6AJFmynb2f_fbJ-2" style="shape=partialRectangle;connectable=0;fillColor=none;top=0;left=0;bottom=0;right=0;editable=1;overflow=hidden;whiteSpace=wrap;html=1;" vertex="1" parent="Kytd1l6AJFmynb2f_fbJ-1">
          <mxGeometry width="30" height="30" as="geometry">
            <mxRectangle width="30" height="30" as="alternateBounds" />
          </mxGeometry>
        </mxCell>
        <mxCell id="Kytd1l6AJFmynb2f_fbJ-3" value="Correo VARCHAR(50)" style="shape=partialRectangle;connectable=0;fillColor=none;top=0;left=0;bottom=0;right=0;align=left;spacingLeft=6;overflow=hidden;whiteSpace=wrap;html=1;" vertex="1" parent="Kytd1l6AJFmynb2f_fbJ-1">
          <mxGeometry x="30" width="280" height="30" as="geometry">
            <mxRectangle width="280" height="30" as="alternateBounds" />
          </mxGeometry>
        </mxCell>
        <mxCell id="Kytd1l6AJFmynb2f_fbJ-4" style="shape=tableRow;horizontal=0;startSize=0;swimlaneHead=0;swimlaneBody=0;fillColor=none;collapsible=0;dropTarget=0;points=[[0,0.5],[1,0.5]];portConstraint=eastwest;top=0;left=0;right=0;bottom=0;" vertex="1" parent="6Y1uYxIbJXJmOSM6ijOe-14">
          <mxGeometry y="150" width="310" height="30" as="geometry" />
        </mxCell>
        <mxCell id="Kytd1l6AJFmynb2f_fbJ-5" style="shape=partialRectangle;connectable=0;fillColor=none;top=0;left=0;bottom=0;right=0;editable=1;overflow=hidden;whiteSpace=wrap;html=1;" vertex="1" parent="Kytd1l6AJFmynb2f_fbJ-4">
          <mxGeometry width="30" height="30" as="geometry">
            <mxRectangle width="30" height="30" as="alternateBounds" />
          </mxGeometry>
        </mxCell>
        <mxCell id="Kytd1l6AJFmynb2f_fbJ-6" value="Clave VARCHAR(10)" style="shape=partialRectangle;connectable=0;fillColor=none;top=0;left=0;bottom=0;right=0;align=left;spacingLeft=6;overflow=hidden;whiteSpace=wrap;html=1;" vertex="1" parent="Kytd1l6AJFmynb2f_fbJ-4">
          <mxGeometry x="30" width="280" height="30" as="geometry">
            <mxRectangle width="280" height="30" as="alternateBounds" />
          </mxGeometry>
        </mxCell>
        <mxCell id="6Y1uYxIbJXJmOSM6ijOe-32" value="Estadisticas" style="shape=table;startSize=30;container=1;collapsible=1;childLayout=tableLayout;fixedRows=1;rowLines=0;fontStyle=1;align=center;resizeLast=1;html=1;fillColor=#d5e8d4;strokeColor=#82b366;" vertex="1" parent="1">
          <mxGeometry x="414" y="-120" width="180" height="290" as="geometry" />
        </mxCell>
        <mxCell id="JZJrmKVBLLm1Tu2zkFdy-1" value="" style="shape=tableRow;horizontal=0;startSize=0;swimlaneHead=0;swimlaneBody=0;fillColor=none;collapsible=0;dropTarget=0;points=[[0,0.5],[1,0.5]];portConstraint=eastwest;top=0;left=0;right=0;bottom=1;" vertex="1" parent="6Y1uYxIbJXJmOSM6ijOe-32">
          <mxGeometry y="30" width="180" height="30" as="geometry" />
        </mxCell>
        <mxCell id="JZJrmKVBLLm1Tu2zkFdy-2" value="PK" style="shape=partialRectangle;connectable=0;fillColor=none;top=0;left=0;bottom=0;right=0;fontStyle=1;overflow=hidden;whiteSpace=wrap;html=1;" vertex="1" parent="JZJrmKVBLLm1Tu2zkFdy-1">
          <mxGeometry width="30" height="30" as="geometry">
            <mxRectangle width="30" height="30" as="alternateBounds" />
          </mxGeometry>
        </mxCell>
        <mxCell id="JZJrmKVBLLm1Tu2zkFdy-3" value="id_estadisticas INT&lt;br&gt;NOT NULL" style="shape=partialRectangle;connectable=0;fillColor=none;top=0;left=0;bottom=0;right=0;align=left;spacingLeft=6;fontStyle=5;overflow=hidden;whiteSpace=wrap;html=1;" vertex="1" parent="JZJrmKVBLLm1Tu2zkFdy-1">
          <mxGeometry x="30" width="150" height="30" as="geometry">
            <mxRectangle width="150" height="30" as="alternateBounds" />
          </mxGeometry>
        </mxCell>
        <mxCell id="6Y1uYxIbJXJmOSM6ijOe-33" value="" style="shape=tableRow;horizontal=0;startSize=0;swimlaneHead=0;swimlaneBody=0;fillColor=none;collapsible=0;dropTarget=0;points=[[0,0.5],[1,0.5]];portConstraint=eastwest;top=0;left=0;right=0;bottom=1;" vertex="1" parent="6Y1uYxIbJXJmOSM6ijOe-32">
          <mxGeometry y="60" width="180" height="30" as="geometry" />
        </mxCell>
        <mxCell id="6Y1uYxIbJXJmOSM6ijOe-34" value="FK&lt;div&gt;UK&lt;/div&gt;" style="shape=partialRectangle;connectable=0;fillColor=none;top=0;left=0;bottom=0;right=0;fontStyle=1;overflow=hidden;whiteSpace=wrap;html=1;" vertex="1" parent="6Y1uYxIbJXJmOSM6ijOe-33">
          <mxGeometry width="30" height="30" as="geometry">
            <mxRectangle width="30" height="30" as="alternateBounds" />
          </mxGeometry>
        </mxCell>
        <mxCell id="6Y1uYxIbJXJmOSM6ijOe-35" value="id_jugador INT&lt;br&gt;NOT NULL" style="shape=partialRectangle;connectable=0;fillColor=none;top=0;left=0;bottom=0;right=0;align=left;spacingLeft=6;fontStyle=5;overflow=hidden;whiteSpace=wrap;html=1;" vertex="1" parent="6Y1uYxIbJXJmOSM6ijOe-33">
          <mxGeometry x="30" width="150" height="30" as="geometry">
            <mxRectangle width="150" height="30" as="alternateBounds" />
          </mxGeometry>
        </mxCell>
        <mxCell id="6Y1uYxIbJXJmOSM6ijOe-36" value="" style="shape=tableRow;horizontal=0;startSize=0;swimlaneHead=0;swimlaneBody=0;fillColor=none;collapsible=0;dropTarget=0;points=[[0,0.5],[1,0.5]];portConstraint=eastwest;top=0;left=0;right=0;bottom=0;" vertex="1" parent="6Y1uYxIbJXJmOSM6ijOe-32">
          <mxGeometry y="90" width="180" height="30" as="geometry" />
        </mxCell>
        <mxCell id="6Y1uYxIbJXJmOSM6ijOe-37" value="" style="shape=partialRectangle;connectable=0;fillColor=none;top=0;left=0;bottom=0;right=0;editable=1;overflow=hidden;whiteSpace=wrap;html=1;" vertex="1" parent="6Y1uYxIbJXJmOSM6ijOe-36">
          <mxGeometry width="30" height="30" as="geometry">
            <mxRectangle width="30" height="30" as="alternateBounds" />
          </mxGeometry>
        </mxCell>
        <mxCell id="6Y1uYxIbJXJmOSM6ijOe-38" value="Horas de juego INT" style="shape=partialRectangle;connectable=0;fillColor=none;top=0;left=0;bottom=0;right=0;align=left;spacingLeft=6;overflow=hidden;whiteSpace=wrap;html=1;" vertex="1" parent="6Y1uYxIbJXJmOSM6ijOe-36">
          <mxGeometry x="30" width="150" height="30" as="geometry">
            <mxRectangle width="150" height="30" as="alternateBounds" />
          </mxGeometry>
        </mxCell>
        <mxCell id="6Y1uYxIbJXJmOSM6ijOe-39" value="" style="shape=tableRow;horizontal=0;startSize=0;swimlaneHead=0;swimlaneBody=0;fillColor=none;collapsible=0;dropTarget=0;points=[[0,0.5],[1,0.5]];portConstraint=eastwest;top=0;left=0;right=0;bottom=0;" vertex="1" parent="6Y1uYxIbJXJmOSM6ijOe-32">
          <mxGeometry y="120" width="180" height="30" as="geometry" />
        </mxCell>
        <mxCell id="6Y1uYxIbJXJmOSM6ijOe-40" value="" style="shape=partialRectangle;connectable=0;fillColor=none;top=0;left=0;bottom=0;right=0;editable=1;overflow=hidden;whiteSpace=wrap;html=1;" vertex="1" parent="6Y1uYxIbJXJmOSM6ijOe-39">
          <mxGeometry width="30" height="30" as="geometry">
            <mxRectangle width="30" height="30" as="alternateBounds" />
          </mxGeometry>
        </mxCell>
        <mxCell id="6Y1uYxIbJXJmOSM6ijOe-41" value="Victorias INT" style="shape=partialRectangle;connectable=0;fillColor=none;top=0;left=0;bottom=0;right=0;align=left;spacingLeft=6;overflow=hidden;whiteSpace=wrap;html=1;" vertex="1" parent="6Y1uYxIbJXJmOSM6ijOe-39">
          <mxGeometry x="30" width="150" height="30" as="geometry">
            <mxRectangle width="150" height="30" as="alternateBounds" />
          </mxGeometry>
        </mxCell>
        <mxCell id="6Y1uYxIbJXJmOSM6ijOe-42" value="" style="shape=tableRow;horizontal=0;startSize=0;swimlaneHead=0;swimlaneBody=0;fillColor=none;collapsible=0;dropTarget=0;points=[[0,0.5],[1,0.5]];portConstraint=eastwest;top=0;left=0;right=0;bottom=0;" vertex="1" parent="6Y1uYxIbJXJmOSM6ijOe-32">
          <mxGeometry y="150" width="180" height="30" as="geometry" />
        </mxCell>
        <mxCell id="6Y1uYxIbJXJmOSM6ijOe-43" value="" style="shape=partialRectangle;connectable=0;fillColor=none;top=0;left=0;bottom=0;right=0;editable=1;overflow=hidden;whiteSpace=wrap;html=1;" vertex="1" parent="6Y1uYxIbJXJmOSM6ijOe-42">
          <mxGeometry width="30" height="30" as="geometry">
            <mxRectangle width="30" height="30" as="alternateBounds" />
          </mxGeometry>
        </mxCell>
        <mxCell id="6Y1uYxIbJXJmOSM6ijOe-44" value="Derrotas INT" style="shape=partialRectangle;connectable=0;fillColor=none;top=0;left=0;bottom=0;right=0;align=left;spacingLeft=6;overflow=hidden;whiteSpace=wrap;html=1;" vertex="1" parent="6Y1uYxIbJXJmOSM6ijOe-42">
          <mxGeometry x="30" width="150" height="30" as="geometry">
            <mxRectangle width="150" height="30" as="alternateBounds" />
          </mxGeometry>
        </mxCell>
        <mxCell id="6Y1uYxIbJXJmOSM6ijOe-83" value="" style="shape=tableRow;horizontal=0;startSize=0;swimlaneHead=0;swimlaneBody=0;fillColor=none;collapsible=0;dropTarget=0;points=[[0,0.5],[1,0.5]];portConstraint=eastwest;top=0;left=0;right=0;bottom=0;" vertex="1" parent="6Y1uYxIbJXJmOSM6ijOe-32">
          <mxGeometry y="180" width="180" height="30" as="geometry" />
        </mxCell>
        <mxCell id="6Y1uYxIbJXJmOSM6ijOe-84" value="" style="shape=partialRectangle;connectable=0;fillColor=none;top=0;left=0;bottom=0;right=0;editable=1;overflow=hidden;whiteSpace=wrap;html=1;" vertex="1" parent="6Y1uYxIbJXJmOSM6ijOe-83">
          <mxGeometry width="30" height="30" as="geometry">
            <mxRectangle width="30" height="30" as="alternateBounds" />
          </mxGeometry>
        </mxCell>
        <mxCell id="6Y1uYxIbJXJmOSM6ijOe-85" value="Partidas jugadas INT" style="shape=partialRectangle;connectable=0;fillColor=none;top=0;left=0;bottom=0;right=0;align=left;spacingLeft=6;overflow=hidden;whiteSpace=wrap;html=1;" vertex="1" parent="6Y1uYxIbJXJmOSM6ijOe-83">
          <mxGeometry x="30" width="150" height="30" as="geometry">
            <mxRectangle width="150" height="30" as="alternateBounds" />
          </mxGeometry>
        </mxCell>
        <mxCell id="Kytd1l6AJFmynb2f_fbJ-10" style="shape=tableRow;horizontal=0;startSize=0;swimlaneHead=0;swimlaneBody=0;fillColor=none;collapsible=0;dropTarget=0;points=[[0,0.5],[1,0.5]];portConstraint=eastwest;top=0;left=0;right=0;bottom=0;" vertex="1" parent="6Y1uYxIbJXJmOSM6ijOe-32">
          <mxGeometry y="210" width="180" height="30" as="geometry" />
        </mxCell>
        <mxCell id="Kytd1l6AJFmynb2f_fbJ-11" style="shape=partialRectangle;connectable=0;fillColor=none;top=0;left=0;bottom=0;right=0;editable=1;overflow=hidden;whiteSpace=wrap;html=1;" vertex="1" parent="Kytd1l6AJFmynb2f_fbJ-10">
          <mxGeometry width="30" height="30" as="geometry">
            <mxRectangle width="30" height="30" as="alternateBounds" />
          </mxGeometry>
        </mxCell>
        <mxCell id="Kytd1l6AJFmynb2f_fbJ-12" value="Nivel INT" style="shape=partialRectangle;connectable=0;fillColor=none;top=0;left=0;bottom=0;right=0;align=left;spacingLeft=6;overflow=hidden;whiteSpace=wrap;html=1;" vertex="1" parent="Kytd1l6AJFmynb2f_fbJ-10">
          <mxGeometry x="30" width="150" height="30" as="geometry">
            <mxRectangle width="150" height="30" as="alternateBounds" />
          </mxGeometry>
        </mxCell>
        <mxCell id="Kytd1l6AJFmynb2f_fbJ-13" style="shape=tableRow;horizontal=0;startSize=0;swimlaneHead=0;swimlaneBody=0;fillColor=none;collapsible=0;dropTarget=0;points=[[0,0.5],[1,0.5]];portConstraint=eastwest;top=0;left=0;right=0;bottom=0;" vertex="1" parent="6Y1uYxIbJXJmOSM6ijOe-32">
          <mxGeometry y="240" width="180" height="50" as="geometry" />
        </mxCell>
        <mxCell id="Kytd1l6AJFmynb2f_fbJ-14" style="shape=partialRectangle;connectable=0;fillColor=none;top=0;left=0;bottom=0;right=0;editable=1;overflow=hidden;whiteSpace=wrap;html=1;" vertex="1" parent="Kytd1l6AJFmynb2f_fbJ-13">
          <mxGeometry width="30" height="50" as="geometry">
            <mxRectangle width="30" height="50" as="alternateBounds" />
          </mxGeometry>
        </mxCell>
        <mxCell id="Kytd1l6AJFmynb2f_fbJ-15" value="Rango VARCHAR (&#39;principiante&#39;, &#39;intermedio&#39;, &#39;experto&#39;)" style="shape=partialRectangle;connectable=0;fillColor=none;top=0;left=0;bottom=0;right=0;align=left;spacingLeft=6;overflow=hidden;whiteSpace=wrap;html=1;" vertex="1" parent="Kytd1l6AJFmynb2f_fbJ-13">
          <mxGeometry x="30" width="150" height="50" as="geometry">
            <mxRectangle width="150" height="50" as="alternateBounds" />
          </mxGeometry>
        </mxCell>
        <mxCell id="6Y1uYxIbJXJmOSM6ijOe-54" value="Carta" style="shape=table;startSize=30;container=1;collapsible=1;childLayout=tableLayout;fixedRows=1;rowLines=0;fontStyle=1;align=center;resizeLast=1;html=1;fillColor=#d5e8d4;strokeColor=#82b366;" vertex="1" parent="1">
          <mxGeometry x="-720" y="90" width="289.9999999999998" height="450" as="geometry" />
        </mxCell>
        <mxCell id="6Y1uYxIbJXJmOSM6ijOe-55" value="" style="shape=tableRow;horizontal=0;startSize=0;swimlaneHead=0;swimlaneBody=0;fillColor=none;collapsible=0;dropTarget=0;points=[[0,0.5],[1,0.5]];portConstraint=eastwest;top=0;left=0;right=0;bottom=1;" vertex="1" parent="6Y1uYxIbJXJmOSM6ijOe-54">
          <mxGeometry y="30" width="289.9999999999998" height="30" as="geometry" />
        </mxCell>
        <mxCell id="6Y1uYxIbJXJmOSM6ijOe-56" value="PK" style="shape=partialRectangle;connectable=0;fillColor=none;top=0;left=0;bottom=0;right=0;fontStyle=1;overflow=hidden;whiteSpace=wrap;html=1;" vertex="1" parent="6Y1uYxIbJXJmOSM6ijOe-55">
          <mxGeometry width="30" height="30" as="geometry">
            <mxRectangle width="30" height="30" as="alternateBounds" />
          </mxGeometry>
        </mxCell>
        <mxCell id="6Y1uYxIbJXJmOSM6ijOe-57" value="id_carta INT NOT NULL" style="shape=partialRectangle;connectable=0;fillColor=none;top=0;left=0;bottom=0;right=0;align=left;spacingLeft=6;fontStyle=5;overflow=hidden;whiteSpace=wrap;html=1;" vertex="1" parent="6Y1uYxIbJXJmOSM6ijOe-55">
          <mxGeometry x="30" width="259.9999999999998" height="30" as="geometry">
            <mxRectangle width="259.9999999999998" height="30" as="alternateBounds" />
          </mxGeometry>
        </mxCell>
        <mxCell id="6Y1uYxIbJXJmOSM6ijOe-61" value="" style="shape=tableRow;horizontal=0;startSize=0;swimlaneHead=0;swimlaneBody=0;fillColor=none;collapsible=0;dropTarget=0;points=[[0,0.5],[1,0.5]];portConstraint=eastwest;top=0;left=0;right=0;bottom=0;" vertex="1" parent="6Y1uYxIbJXJmOSM6ijOe-54">
          <mxGeometry y="60" width="289.9999999999998" height="30" as="geometry" />
        </mxCell>
        <mxCell id="6Y1uYxIbJXJmOSM6ijOe-62" value="" style="shape=partialRectangle;connectable=0;fillColor=none;top=0;left=0;bottom=0;right=0;editable=1;overflow=hidden;whiteSpace=wrap;html=1;" vertex="1" parent="6Y1uYxIbJXJmOSM6ijOe-61">
          <mxGeometry width="30" height="30" as="geometry">
            <mxRectangle width="30" height="30" as="alternateBounds" />
          </mxGeometry>
        </mxCell>
        <mxCell id="6Y1uYxIbJXJmOSM6ijOe-63" value="Nombre VARCHAR(10)" style="shape=partialRectangle;connectable=0;fillColor=none;top=0;left=0;bottom=0;right=0;align=left;spacingLeft=6;overflow=hidden;whiteSpace=wrap;html=1;" vertex="1" parent="6Y1uYxIbJXJmOSM6ijOe-61">
          <mxGeometry x="30" width="259.9999999999998" height="30" as="geometry">
            <mxRectangle width="259.9999999999998" height="30" as="alternateBounds" />
          </mxGeometry>
        </mxCell>
        <mxCell id="njJMeFl6jzKbLZJjlkmR-35" value="" style="shape=tableRow;horizontal=0;startSize=0;swimlaneHead=0;swimlaneBody=0;fillColor=none;collapsible=0;dropTarget=0;points=[[0,0.5],[1,0.5]];portConstraint=eastwest;top=0;left=0;right=0;bottom=0;" vertex="1" parent="6Y1uYxIbJXJmOSM6ijOe-54">
          <mxGeometry y="90" width="289.9999999999998" height="30" as="geometry" />
        </mxCell>
        <mxCell id="njJMeFl6jzKbLZJjlkmR-36" value="" style="shape=partialRectangle;connectable=0;fillColor=none;top=0;left=0;bottom=0;right=0;editable=1;overflow=hidden;whiteSpace=wrap;html=1;" vertex="1" parent="njJMeFl6jzKbLZJjlkmR-35">
          <mxGeometry width="30" height="30" as="geometry">
            <mxRectangle width="30" height="30" as="alternateBounds" />
          </mxGeometry>
        </mxCell>
        <mxCell id="njJMeFl6jzKbLZJjlkmR-37" value="Descripcion TEXT" style="shape=partialRectangle;connectable=0;fillColor=none;top=0;left=0;bottom=0;right=0;align=left;spacingLeft=6;overflow=hidden;whiteSpace=wrap;html=1;" vertex="1" parent="njJMeFl6jzKbLZJjlkmR-35">
          <mxGeometry x="30" width="259.9999999999998" height="30" as="geometry">
            <mxRectangle width="259.9999999999998" height="30" as="alternateBounds" />
          </mxGeometry>
        </mxCell>
        <mxCell id="6Y1uYxIbJXJmOSM6ijOe-58" value="" style="shape=tableRow;horizontal=0;startSize=0;swimlaneHead=0;swimlaneBody=0;fillColor=none;collapsible=0;dropTarget=0;points=[[0,0.5],[1,0.5]];portConstraint=eastwest;top=0;left=0;right=0;bottom=0;" vertex="1" parent="6Y1uYxIbJXJmOSM6ijOe-54">
          <mxGeometry y="120" width="289.9999999999998" height="30" as="geometry" />
        </mxCell>
        <mxCell id="6Y1uYxIbJXJmOSM6ijOe-59" value="" style="shape=partialRectangle;connectable=0;fillColor=none;top=0;left=0;bottom=0;right=0;editable=1;overflow=hidden;whiteSpace=wrap;html=1;" vertex="1" parent="6Y1uYxIbJXJmOSM6ijOe-58">
          <mxGeometry width="30" height="30" as="geometry">
            <mxRectangle width="30" height="30" as="alternateBounds" />
          </mxGeometry>
        </mxCell>
        <mxCell id="6Y1uYxIbJXJmOSM6ijOe-60" value="Tipo ENUM(&#39;pokemon&#39;, &#39;energÃ­a&#39;, &#39;entrenador&#39;" style="shape=partialRectangle;connectable=0;fillColor=none;top=0;left=0;bottom=0;right=0;align=left;spacingLeft=6;overflow=hidden;whiteSpace=wrap;html=1;" vertex="1" parent="6Y1uYxIbJXJmOSM6ijOe-58">
          <mxGeometry x="30" width="259.9999999999998" height="30" as="geometry">
            <mxRectangle width="259.9999999999998" height="30" as="alternateBounds" />
          </mxGeometry>
        </mxCell>
        <mxCell id="6Y1uYxIbJXJmOSM6ijOe-64" value="" style="shape=tableRow;horizontal=0;startSize=0;swimlaneHead=0;swimlaneBody=0;fillColor=none;collapsible=0;dropTarget=0;points=[[0,0.5],[1,0.5]];portConstraint=eastwest;top=0;left=0;right=0;bottom=0;" vertex="1" parent="6Y1uYxIbJXJmOSM6ijOe-54">
          <mxGeometry y="150" width="289.9999999999998" height="30" as="geometry" />
        </mxCell>
        <mxCell id="6Y1uYxIbJXJmOSM6ijOe-65" value="" style="shape=partialRectangle;connectable=0;fillColor=none;top=0;left=0;bottom=0;right=0;editable=1;overflow=hidden;whiteSpace=wrap;html=1;" vertex="1" parent="6Y1uYxIbJXJmOSM6ijOe-64">
          <mxGeometry width="30" height="30" as="geometry">
            <mxRectangle width="30" height="30" as="alternateBounds" />
          </mxGeometry>
        </mxCell>
        <mxCell id="6Y1uYxIbJXJmOSM6ijOe-66" value="Vida INT" style="shape=partialRectangle;connectable=0;fillColor=none;top=0;left=0;bottom=0;right=0;align=left;spacingLeft=6;overflow=hidden;whiteSpace=wrap;html=1;" vertex="1" parent="6Y1uYxIbJXJmOSM6ijOe-64">
          <mxGeometry x="30" width="259.9999999999998" height="30" as="geometry">
            <mxRectangle width="259.9999999999998" height="30" as="alternateBounds" />
          </mxGeometry>
        </mxCell>
        <mxCell id="njJMeFl6jzKbLZJjlkmR-4" value="" style="shape=tableRow;horizontal=0;startSize=0;swimlaneHead=0;swimlaneBody=0;fillColor=none;collapsible=0;dropTarget=0;points=[[0,0.5],[1,0.5]];portConstraint=eastwest;top=0;left=0;right=0;bottom=0;" vertex="1" parent="6Y1uYxIbJXJmOSM6ijOe-54">
          <mxGeometry y="180" width="289.9999999999998" height="30" as="geometry" />
        </mxCell>
        <mxCell id="njJMeFl6jzKbLZJjlkmR-5" value="" style="shape=partialRectangle;connectable=0;fillColor=none;top=0;left=0;bottom=0;right=0;editable=1;overflow=hidden;whiteSpace=wrap;html=1;" vertex="1" parent="njJMeFl6jzKbLZJjlkmR-4">
          <mxGeometry width="30" height="30" as="geometry">
            <mxRectangle width="30" height="30" as="alternateBounds" />
          </mxGeometry>
        </mxCell>
        <mxCell id="njJMeFl6jzKbLZJjlkmR-6" value="Fase INT" style="shape=partialRectangle;connectable=0;fillColor=none;top=0;left=0;bottom=0;right=0;align=left;spacingLeft=6;overflow=hidden;whiteSpace=wrap;html=1;" vertex="1" parent="njJMeFl6jzKbLZJjlkmR-4">
          <mxGeometry x="30" width="259.9999999999998" height="30" as="geometry">
            <mxRectangle width="259.9999999999998" height="30" as="alternateBounds" />
          </mxGeometry>
        </mxCell>
        <mxCell id="njJMeFl6jzKbLZJjlkmR-102" style="shape=tableRow;horizontal=0;startSize=0;swimlaneHead=0;swimlaneBody=0;fillColor=none;collapsible=0;dropTarget=0;points=[[0,0.5],[1,0.5]];portConstraint=eastwest;top=0;left=0;right=0;bottom=0;" vertex="1" parent="6Y1uYxIbJXJmOSM6ijOe-54">
          <mxGeometry y="210" width="289.9999999999998" height="30" as="geometry" />
        </mxCell>
        <mxCell id="njJMeFl6jzKbLZJjlkmR-103" style="shape=partialRectangle;connectable=0;fillColor=none;top=0;left=0;bottom=0;right=0;editable=1;overflow=hidden;whiteSpace=wrap;html=1;" vertex="1" parent="njJMeFl6jzKbLZJjlkmR-102">
          <mxGeometry width="30" height="30" as="geometry">
            <mxRectangle width="30" height="30" as="alternateBounds" />
          </mxGeometry>
        </mxCell>
        <mxCell id="njJMeFl6jzKbLZJjlkmR-104" value="Habilidad TEXT" style="shape=partialRectangle;connectable=0;fillColor=none;top=0;left=0;bottom=0;right=0;align=left;spacingLeft=6;overflow=hidden;whiteSpace=wrap;html=1;" vertex="1" parent="njJMeFl6jzKbLZJjlkmR-102">
          <mxGeometry x="30" width="259.9999999999998" height="30" as="geometry">
            <mxRectangle width="259.9999999999998" height="30" as="alternateBounds" />
          </mxGeometry>
        </mxCell>
        <mxCell id="6Y1uYxIbJXJmOSM6ijOe-70" value="" style="shape=tableRow;horizontal=0;startSize=0;swimlaneHead=0;swimlaneBody=0;fillColor=none;collapsible=0;dropTarget=0;points=[[0,0.5],[1,0.5]];portConstraint=eastwest;top=0;left=0;right=0;bottom=0;" vertex="1" parent="6Y1uYxIbJXJmOSM6ijOe-54">
          <mxGeometry y="240" width="289.9999999999998" height="30" as="geometry" />
        </mxCell>
        <mxCell id="6Y1uYxIbJXJmOSM6ijOe-71" value="" style="shape=partialRectangle;connectable=0;fillColor=none;top=0;left=0;bottom=0;right=0;editable=1;overflow=hidden;whiteSpace=wrap;html=1;" vertex="1" parent="6Y1uYxIbJXJmOSM6ijOe-70">
          <mxGeometry width="30" height="30" as="geometry">
            <mxRectangle width="30" height="30" as="alternateBounds" />
          </mxGeometry>
        </mxCell>
        <mxCell id="6Y1uYxIbJXJmOSM6ijOe-72" value="Debilidad TEXT" style="shape=partialRectangle;connectable=0;fillColor=none;top=0;left=0;bottom=0;right=0;align=left;spacingLeft=6;overflow=hidden;whiteSpace=wrap;html=1;" vertex="1" parent="6Y1uYxIbJXJmOSM6ijOe-70">
          <mxGeometry x="30" width="259.9999999999998" height="30" as="geometry">
            <mxRectangle width="259.9999999999998" height="30" as="alternateBounds" />
          </mxGeometry>
        </mxCell>
        <mxCell id="njJMeFl6jzKbLZJjlkmR-108" style="shape=tableRow;horizontal=0;startSize=0;swimlaneHead=0;swimlaneBody=0;fillColor=none;collapsible=0;dropTarget=0;points=[[0,0.5],[1,0.5]];portConstraint=eastwest;top=0;left=0;right=0;bottom=0;" vertex="1" parent="6Y1uYxIbJXJmOSM6ijOe-54">
          <mxGeometry y="270" width="289.9999999999998" height="30" as="geometry" />
        </mxCell>
        <mxCell id="njJMeFl6jzKbLZJjlkmR-109" style="shape=partialRectangle;connectable=0;fillColor=none;top=0;left=0;bottom=0;right=0;editable=1;overflow=hidden;whiteSpace=wrap;html=1;" vertex="1" parent="njJMeFl6jzKbLZJjlkmR-108">
          <mxGeometry width="30" height="30" as="geometry">
            <mxRectangle width="30" height="30" as="alternateBounds" />
          </mxGeometry>
        </mxCell>
        <mxCell id="njJMeFl6jzKbLZJjlkmR-110" value="Resistencia TEXT" style="shape=partialRectangle;connectable=0;fillColor=none;top=0;left=0;bottom=0;right=0;align=left;spacingLeft=6;overflow=hidden;whiteSpace=wrap;html=1;" vertex="1" parent="njJMeFl6jzKbLZJjlkmR-108">
          <mxGeometry x="30" width="259.9999999999998" height="30" as="geometry">
            <mxRectangle width="259.9999999999998" height="30" as="alternateBounds" />
          </mxGeometry>
        </mxCell>
        <mxCell id="93I4x6KxYkw6_KY05Foo-44" style="shape=tableRow;horizontal=0;startSize=0;swimlaneHead=0;swimlaneBody=0;fillColor=none;collapsible=0;dropTarget=0;points=[[0,0.5],[1,0.5]];portConstraint=eastwest;top=0;left=0;right=0;bottom=0;" vertex="1" parent="6Y1uYxIbJXJmOSM6ijOe-54">
          <mxGeometry y="300" width="289.9999999999998" height="30" as="geometry" />
        </mxCell>
        <mxCell id="93I4x6KxYkw6_KY05Foo-45" style="shape=partialRectangle;connectable=0;fillColor=none;top=0;left=0;bottom=0;right=0;editable=1;overflow=hidden;whiteSpace=wrap;html=1;" vertex="1" parent="93I4x6KxYkw6_KY05Foo-44">
          <mxGeometry width="30" height="30" as="geometry">
            <mxRectangle width="30" height="30" as="alternateBounds" />
          </mxGeometry>
        </mxCell>
        <mxCell id="93I4x6KxYkw6_KY05Foo-46" value="Puntos_ataque INT" style="shape=partialRectangle;connectable=0;fillColor=none;top=0;left=0;bottom=0;right=0;align=left;spacingLeft=6;overflow=hidden;whiteSpace=wrap;html=1;" vertex="1" parent="93I4x6KxYkw6_KY05Foo-44">
          <mxGeometry x="30" width="259.9999999999998" height="30" as="geometry">
            <mxRectangle width="259.9999999999998" height="30" as="alternateBounds" />
          </mxGeometry>
        </mxCell>
        <mxCell id="93I4x6KxYkw6_KY05Foo-47" style="shape=tableRow;horizontal=0;startSize=0;swimlaneHead=0;swimlaneBody=0;fillColor=none;collapsible=0;dropTarget=0;points=[[0,0.5],[1,0.5]];portConstraint=eastwest;top=0;left=0;right=0;bottom=0;" vertex="1" parent="6Y1uYxIbJXJmOSM6ijOe-54">
          <mxGeometry y="330" width="289.9999999999998" height="30" as="geometry" />
        </mxCell>
        <mxCell id="93I4x6KxYkw6_KY05Foo-48" style="shape=partialRectangle;connectable=0;fillColor=none;top=0;left=0;bottom=0;right=0;editable=1;overflow=hidden;whiteSpace=wrap;html=1;" vertex="1" parent="93I4x6KxYkw6_KY05Foo-47">
          <mxGeometry width="30" height="30" as="geometry">
            <mxRectangle width="30" height="30" as="alternateBounds" />
          </mxGeometry>
        </mxCell>
        <mxCell id="93I4x6KxYkw6_KY05Foo-49" value="Coste_energia INT" style="shape=partialRectangle;connectable=0;fillColor=none;top=0;left=0;bottom=0;right=0;align=left;spacingLeft=6;overflow=hidden;whiteSpace=wrap;html=1;" vertex="1" parent="93I4x6KxYkw6_KY05Foo-47">
          <mxGeometry x="30" width="259.9999999999998" height="30" as="geometry">
            <mxRectangle width="259.9999999999998" height="30" as="alternateBounds" />
          </mxGeometry>
        </mxCell>
        <mxCell id="93I4x6KxYkw6_KY05Foo-50" style="shape=tableRow;horizontal=0;startSize=0;swimlaneHead=0;swimlaneBody=0;fillColor=none;collapsible=0;dropTarget=0;points=[[0,0.5],[1,0.5]];portConstraint=eastwest;top=0;left=0;right=0;bottom=0;" vertex="1" parent="6Y1uYxIbJXJmOSM6ijOe-54">
          <mxGeometry y="360" width="289.9999999999998" height="30" as="geometry" />
        </mxCell>
        <mxCell id="93I4x6KxYkw6_KY05Foo-51" style="shape=partialRectangle;connectable=0;fillColor=none;top=0;left=0;bottom=0;right=0;editable=1;overflow=hidden;whiteSpace=wrap;html=1;" vertex="1" parent="93I4x6KxYkw6_KY05Foo-50">
          <mxGeometry width="30" height="30" as="geometry">
            <mxRectangle width="30" height="30" as="alternateBounds" />
          </mxGeometry>
        </mxCell>
        <mxCell id="93I4x6KxYkw6_KY05Foo-52" value="Condiciones TEXT" style="shape=partialRectangle;connectable=0;fillColor=none;top=0;left=0;bottom=0;right=0;align=left;spacingLeft=6;overflow=hidden;whiteSpace=wrap;html=1;" vertex="1" parent="93I4x6KxYkw6_KY05Foo-50">
          <mxGeometry x="30" width="259.9999999999998" height="30" as="geometry">
            <mxRectangle width="259.9999999999998" height="30" as="alternateBounds" />
          </mxGeometry>
        </mxCell>
        <mxCell id="93I4x6KxYkw6_KY05Foo-53" style="shape=tableRow;horizontal=0;startSize=0;swimlaneHead=0;swimlaneBody=0;fillColor=none;collapsible=0;dropTarget=0;points=[[0,0.5],[1,0.5]];portConstraint=eastwest;top=0;left=0;right=0;bottom=0;" vertex="1" parent="6Y1uYxIbJXJmOSM6ijOe-54">
          <mxGeometry y="390" width="289.9999999999998" height="30" as="geometry" />
        </mxCell>
        <mxCell id="93I4x6KxYkw6_KY05Foo-54" style="shape=partialRectangle;connectable=0;fillColor=none;top=0;left=0;bottom=0;right=0;editable=1;overflow=hidden;whiteSpace=wrap;html=1;" vertex="1" parent="93I4x6KxYkw6_KY05Foo-53">
          <mxGeometry width="30" height="30" as="geometry">
            <mxRectangle width="30" height="30" as="alternateBounds" />
          </mxGeometry>
        </mxCell>
        <mxCell id="93I4x6KxYkw6_KY05Foo-55" value="Duracion_turnos" style="shape=partialRectangle;connectable=0;fillColor=none;top=0;left=0;bottom=0;right=0;align=left;spacingLeft=6;overflow=hidden;whiteSpace=wrap;html=1;" vertex="1" parent="93I4x6KxYkw6_KY05Foo-53">
          <mxGeometry x="30" width="259.9999999999998" height="30" as="geometry">
            <mxRectangle width="259.9999999999998" height="30" as="alternateBounds" />
          </mxGeometry>
        </mxCell>
        <mxCell id="njJMeFl6jzKbLZJjlkmR-1" value="" style="shape=tableRow;horizontal=0;startSize=0;swimlaneHead=0;swimlaneBody=0;fillColor=none;collapsible=0;dropTarget=0;points=[[0,0.5],[1,0.5]];portConstraint=eastwest;top=0;left=0;right=0;bottom=0;" vertex="1" parent="6Y1uYxIbJXJmOSM6ijOe-54">
          <mxGeometry y="420" width="289.9999999999998" height="30" as="geometry" />
        </mxCell>
        <mxCell id="njJMeFl6jzKbLZJjlkmR-2" value="" style="shape=partialRectangle;connectable=0;fillColor=none;top=0;left=0;bottom=0;right=0;editable=1;overflow=hidden;whiteSpace=wrap;html=1;" vertex="1" parent="njJMeFl6jzKbLZJjlkmR-1">
          <mxGeometry width="30" height="30" as="geometry">
            <mxRectangle width="30" height="30" as="alternateBounds" />
          </mxGeometry>
        </mxCell>
        <mxCell id="njJMeFl6jzKbLZJjlkmR-3" value="Coste_retirada TEXT" style="shape=partialRectangle;connectable=0;fillColor=none;top=0;left=0;bottom=0;right=0;align=left;spacingLeft=6;overflow=hidden;whiteSpace=wrap;html=1;" vertex="1" parent="njJMeFl6jzKbLZJjlkmR-1">
          <mxGeometry x="30" width="259.9999999999998" height="30" as="geometry">
            <mxRectangle width="259.9999999999998" height="30" as="alternateBounds" />
          </mxGeometry>
        </mxCell>
        <mxCell id="6Y1uYxIbJXJmOSM6ijOe-86" value="" style="edgeStyle=entityRelationEdgeStyle;fontSize=12;html=1;endArrow=ERmandOne;startArrow=ERmandOne;rounded=0;exitX=0;exitY=0.5;exitDx=0;exitDy=0;entryX=1.004;entryY=0.2;entryDx=0;entryDy=0;entryPerimeter=0;" edge="1" parent="1" source="6Y1uYxIbJXJmOSM6ijOe-33" target="6Y1uYxIbJXJmOSM6ijOe-15">
          <mxGeometry width="100" height="100" relative="1" as="geometry">
            <mxPoint x="660" y="430" as="sourcePoint" />
            <mxPoint x="630" y="150" as="targetPoint" />
            <Array as="points">
              <mxPoint x="730" y="305" />
              <mxPoint x="390" y="140" />
              <mxPoint x="620" y="280" />
              <mxPoint x="610" y="190" />
              <mxPoint x="580" y="160" />
            </Array>
          </mxGeometry>
        </mxCell>
        <mxCell id="JZJrmKVBLLm1Tu2zkFdy-94" value="Carta_Jugador" style="shape=table;startSize=30;container=1;collapsible=1;childLayout=tableLayout;fixedRows=1;rowLines=0;fontStyle=1;align=center;resizeLast=1;html=1;fillColor=#f8cecc;strokeColor=#b85450;" vertex="1" parent="1">
          <mxGeometry x="-350" y="90" width="290.0000000000002" height="90" as="geometry" />
        </mxCell>
        <mxCell id="JZJrmKVBLLm1Tu2zkFdy-107" value="" style="shape=tableRow;horizontal=0;startSize=0;swimlaneHead=0;swimlaneBody=0;fillColor=none;collapsible=0;dropTarget=0;points=[[0,0.5],[1,0.5]];portConstraint=eastwest;top=0;left=0;right=0;bottom=1;" vertex="1" parent="JZJrmKVBLLm1Tu2zkFdy-94">
          <mxGeometry y="30" width="290.0000000000002" height="30" as="geometry" />
        </mxCell>
        <mxCell id="JZJrmKVBLLm1Tu2zkFdy-108" value="PK&lt;br&gt;FK" style="shape=partialRectangle;connectable=0;fillColor=none;top=0;left=0;bottom=0;right=0;fontStyle=1;overflow=hidden;whiteSpace=wrap;html=1;" vertex="1" parent="JZJrmKVBLLm1Tu2zkFdy-107">
          <mxGeometry width="30" height="30" as="geometry">
            <mxRectangle width="30" height="30" as="alternateBounds" />
          </mxGeometry>
        </mxCell>
        <mxCell id="JZJrmKVBLLm1Tu2zkFdy-109" value="id_carta INT NOT NULL" style="shape=partialRectangle;connectable=0;fillColor=none;top=0;left=0;bottom=0;right=0;align=left;spacingLeft=6;fontStyle=5;overflow=hidden;whiteSpace=wrap;html=1;" vertex="1" parent="JZJrmKVBLLm1Tu2zkFdy-107">
          <mxGeometry x="30" width="260.0000000000002" height="30" as="geometry">
            <mxRectangle width="260.0000000000002" height="30" as="alternateBounds" />
          </mxGeometry>
        </mxCell>
        <mxCell id="JZJrmKVBLLm1Tu2zkFdy-95" value="" style="shape=tableRow;horizontal=0;startSize=0;swimlaneHead=0;swimlaneBody=0;fillColor=none;collapsible=0;dropTarget=0;points=[[0,0.5],[1,0.5]];portConstraint=eastwest;top=0;left=0;right=0;bottom=1;" vertex="1" parent="JZJrmKVBLLm1Tu2zkFdy-94">
          <mxGeometry y="60" width="290.0000000000002" height="30" as="geometry" />
        </mxCell>
        <mxCell id="JZJrmKVBLLm1Tu2zkFdy-96" value="PK&lt;br&gt;FK" style="shape=partialRectangle;connectable=0;fillColor=none;top=0;left=0;bottom=0;right=0;fontStyle=1;overflow=hidden;whiteSpace=wrap;html=1;" vertex="1" parent="JZJrmKVBLLm1Tu2zkFdy-95">
          <mxGeometry width="30" height="30" as="geometry">
            <mxRectangle width="30" height="30" as="alternateBounds" />
          </mxGeometry>
        </mxCell>
        <mxCell id="JZJrmKVBLLm1Tu2zkFdy-97" value="id_jugador INT NOT NULL" style="shape=partialRectangle;connectable=0;fillColor=none;top=0;left=0;bottom=0;right=0;align=left;spacingLeft=6;fontStyle=5;overflow=hidden;whiteSpace=wrap;html=1;" vertex="1" parent="JZJrmKVBLLm1Tu2zkFdy-95">
          <mxGeometry x="30" width="260.0000000000002" height="30" as="geometry">
            <mxRectangle width="260.0000000000002" height="30" as="alternateBounds" />
          </mxGeometry>
        </mxCell>
        <mxCell id="JZJrmKVBLLm1Tu2zkFdy-116" value="" style="edgeStyle=entityRelationEdgeStyle;fontSize=12;html=1;endArrow=ERmany;rounded=0;exitX=0;exitY=0.5;exitDx=0;exitDy=0;entryX=1;entryY=0.5;entryDx=0;entryDy=0;startArrow=none;startFill=0;endFill=0;" edge="1" parent="1" source="6Y1uYxIbJXJmOSM6ijOe-15" target="JZJrmKVBLLm1Tu2zkFdy-95">
          <mxGeometry width="100" height="100" relative="1" as="geometry">
            <mxPoint x="160" y="320" as="sourcePoint" />
            <mxPoint x="260" y="220" as="targetPoint" />
            <Array as="points">
              <mxPoint x="300" y="340" />
            </Array>
          </mxGeometry>
        </mxCell>
        <mxCell id="JZJrmKVBLLm1Tu2zkFdy-118" value="" style="edgeStyle=entityRelationEdgeStyle;fontSize=12;html=1;endArrow=ERmany;rounded=0;exitX=1;exitY=0.5;exitDx=0;exitDy=0;entryX=0;entryY=0.5;entryDx=0;entryDy=0;endFill=0;" edge="1" parent="1" source="6Y1uYxIbJXJmOSM6ijOe-55" target="JZJrmKVBLLm1Tu2zkFdy-107">
          <mxGeometry width="100" height="100" relative="1" as="geometry">
            <mxPoint x="300" y="290" as="sourcePoint" />
            <mxPoint x="220" y="320" as="targetPoint" />
          </mxGeometry>
        </mxCell>
        <mxCell id="njJMeFl6jzKbLZJjlkmR-38" value="Partida" style="shape=table;startSize=30;container=1;collapsible=1;childLayout=tableLayout;fixedRows=1;rowLines=0;fontStyle=1;align=center;resizeLast=1;html=1;fillColor=#d5e8d4;strokeColor=#82b366;" vertex="1" parent="1">
          <mxGeometry x="414" y="410" width="180" height="120" as="geometry" />
        </mxCell>
        <mxCell id="njJMeFl6jzKbLZJjlkmR-60" value="" style="shape=tableRow;horizontal=0;startSize=0;swimlaneHead=0;swimlaneBody=0;fillColor=none;collapsible=0;dropTarget=0;points=[[0,0.5],[1,0.5]];portConstraint=eastwest;top=0;left=0;right=0;bottom=1;" vertex="1" parent="njJMeFl6jzKbLZJjlkmR-38">
          <mxGeometry y="30" width="180" height="30" as="geometry" />
        </mxCell>
        <mxCell id="njJMeFl6jzKbLZJjlkmR-61" value="PK" style="shape=partialRectangle;connectable=0;fillColor=none;top=0;left=0;bottom=0;right=0;fontStyle=1;overflow=hidden;whiteSpace=wrap;html=1;" vertex="1" parent="njJMeFl6jzKbLZJjlkmR-60">
          <mxGeometry width="30" height="30" as="geometry">
            <mxRectangle width="30" height="30" as="alternateBounds" />
          </mxGeometry>
        </mxCell>
        <mxCell id="njJMeFl6jzKbLZJjlkmR-62" value="id_partida INT NOT NULL" style="shape=partialRectangle;connectable=0;fillColor=none;top=0;left=0;bottom=0;right=0;align=left;spacingLeft=6;fontStyle=5;overflow=hidden;whiteSpace=wrap;html=1;" vertex="1" parent="njJMeFl6jzKbLZJjlkmR-60">
          <mxGeometry x="30" width="150" height="30" as="geometry">
            <mxRectangle width="150" height="30" as="alternateBounds" />
          </mxGeometry>
        </mxCell>
        <mxCell id="njJMeFl6jzKbLZJjlkmR-45" value="" style="shape=tableRow;horizontal=0;startSize=0;swimlaneHead=0;swimlaneBody=0;fillColor=none;collapsible=0;dropTarget=0;points=[[0,0.5],[1,0.5]];portConstraint=eastwest;top=0;left=0;right=0;bottom=0;" vertex="1" parent="njJMeFl6jzKbLZJjlkmR-38">
          <mxGeometry y="60" width="180" height="30" as="geometry" />
        </mxCell>
        <mxCell id="njJMeFl6jzKbLZJjlkmR-46" value="" style="shape=partialRectangle;connectable=0;fillColor=none;top=0;left=0;bottom=0;right=0;editable=1;overflow=hidden;whiteSpace=wrap;html=1;" vertex="1" parent="njJMeFl6jzKbLZJjlkmR-45">
          <mxGeometry width="30" height="30" as="geometry">
            <mxRectangle width="30" height="30" as="alternateBounds" />
          </mxGeometry>
        </mxCell>
        <mxCell id="njJMeFl6jzKbLZJjlkmR-47" value="Duracion INT" style="shape=partialRectangle;connectable=0;fillColor=none;top=0;left=0;bottom=0;right=0;align=left;spacingLeft=6;overflow=hidden;whiteSpace=wrap;html=1;" vertex="1" parent="njJMeFl6jzKbLZJjlkmR-45">
          <mxGeometry x="30" width="150" height="30" as="geometry">
            <mxRectangle width="150" height="30" as="alternateBounds" />
          </mxGeometry>
        </mxCell>
        <mxCell id="njJMeFl6jzKbLZJjlkmR-48" value="" style="shape=tableRow;horizontal=0;startSize=0;swimlaneHead=0;swimlaneBody=0;fillColor=none;collapsible=0;dropTarget=0;points=[[0,0.5],[1,0.5]];portConstraint=eastwest;top=0;left=0;right=0;bottom=0;" vertex="1" parent="njJMeFl6jzKbLZJjlkmR-38">
          <mxGeometry y="90" width="180" height="30" as="geometry" />
        </mxCell>
        <mxCell id="njJMeFl6jzKbLZJjlkmR-49" value="" style="shape=partialRectangle;connectable=0;fillColor=none;top=0;left=0;bottom=0;right=0;editable=1;overflow=hidden;whiteSpace=wrap;html=1;" vertex="1" parent="njJMeFl6jzKbLZJjlkmR-48">
          <mxGeometry width="30" height="30" as="geometry">
            <mxRectangle width="30" height="30" as="alternateBounds" />
          </mxGeometry>
        </mxCell>
        <mxCell id="njJMeFl6jzKbLZJjlkmR-50" value="Ganador VARCHAR(10)" style="shape=partialRectangle;connectable=0;fillColor=none;top=0;left=0;bottom=0;right=0;align=left;spacingLeft=6;overflow=hidden;whiteSpace=wrap;html=1;" vertex="1" parent="njJMeFl6jzKbLZJjlkmR-48">
          <mxGeometry x="30" width="150" height="30" as="geometry">
            <mxRectangle width="150" height="30" as="alternateBounds" />
          </mxGeometry>
        </mxCell>
        <mxCell id="njJMeFl6jzKbLZJjlkmR-224" value="Turno" style="shape=table;startSize=30;container=1;collapsible=1;childLayout=tableLayout;fixedRows=1;rowLines=0;fontStyle=1;align=center;resizeLast=1;html=1;fillColor=#d5e8d4;strokeColor=#82b366;" vertex="1" parent="1">
          <mxGeometry x="81" y="470" width="239" height="150" as="geometry" />
        </mxCell>
        <mxCell id="njJMeFl6jzKbLZJjlkmR-225" value="" style="shape=tableRow;horizontal=0;startSize=0;swimlaneHead=0;swimlaneBody=0;fillColor=none;collapsible=0;dropTarget=0;points=[[0,0.5],[1,0.5]];portConstraint=eastwest;top=0;left=0;right=0;bottom=1;" vertex="1" parent="njJMeFl6jzKbLZJjlkmR-224">
          <mxGeometry y="30" width="239" height="30" as="geometry" />
        </mxCell>
        <mxCell id="njJMeFl6jzKbLZJjlkmR-226" value="PK" style="shape=partialRectangle;connectable=0;fillColor=none;top=0;left=0;bottom=0;right=0;fontStyle=1;overflow=hidden;whiteSpace=wrap;html=1;" vertex="1" parent="njJMeFl6jzKbLZJjlkmR-225">
          <mxGeometry width="30" height="30" as="geometry">
            <mxRectangle width="30" height="30" as="alternateBounds" />
          </mxGeometry>
        </mxCell>
        <mxCell id="njJMeFl6jzKbLZJjlkmR-227" value="id_turno INT&lt;div&gt;NOT NULL&lt;/div&gt;" style="shape=partialRectangle;connectable=0;fillColor=none;top=0;left=0;bottom=0;right=0;align=left;spacingLeft=6;fontStyle=5;overflow=hidden;whiteSpace=wrap;html=1;" vertex="1" parent="njJMeFl6jzKbLZJjlkmR-225">
          <mxGeometry x="30" width="209" height="30" as="geometry">
            <mxRectangle width="209" height="30" as="alternateBounds" />
          </mxGeometry>
        </mxCell>
        <mxCell id="njJMeFl6jzKbLZJjlkmR-327" style="shape=tableRow;horizontal=0;startSize=0;swimlaneHead=0;swimlaneBody=0;fillColor=none;collapsible=0;dropTarget=0;points=[[0,0.5],[1,0.5]];portConstraint=eastwest;top=0;left=0;right=0;bottom=1;" vertex="1" parent="njJMeFl6jzKbLZJjlkmR-224">
          <mxGeometry y="60" width="239" height="30" as="geometry" />
        </mxCell>
        <mxCell id="njJMeFl6jzKbLZJjlkmR-328" value="FK" style="shape=partialRectangle;connectable=0;fillColor=none;top=0;left=0;bottom=0;right=0;fontStyle=1;overflow=hidden;whiteSpace=wrap;html=1;" vertex="1" parent="njJMeFl6jzKbLZJjlkmR-327">
          <mxGeometry width="30" height="30" as="geometry">
            <mxRectangle width="30" height="30" as="alternateBounds" />
          </mxGeometry>
        </mxCell>
        <mxCell id="njJMeFl6jzKbLZJjlkmR-329" value="id_partida INT&lt;div&gt;NOT NULL&lt;/div&gt;" style="shape=partialRectangle;connectable=0;fillColor=none;top=0;left=0;bottom=0;right=0;align=left;spacingLeft=6;fontStyle=5;overflow=hidden;whiteSpace=wrap;html=1;" vertex="1" parent="njJMeFl6jzKbLZJjlkmR-327">
          <mxGeometry x="30" width="209" height="30" as="geometry">
            <mxRectangle width="209" height="30" as="alternateBounds" />
          </mxGeometry>
        </mxCell>
        <mxCell id="njJMeFl6jzKbLZJjlkmR-228" value="" style="shape=tableRow;horizontal=0;startSize=0;swimlaneHead=0;swimlaneBody=0;fillColor=none;collapsible=0;dropTarget=0;points=[[0,0.5],[1,0.5]];portConstraint=eastwest;top=0;left=0;right=0;bottom=0;" vertex="1" parent="njJMeFl6jzKbLZJjlkmR-224">
          <mxGeometry y="90" width="239" height="30" as="geometry" />
        </mxCell>
        <mxCell id="njJMeFl6jzKbLZJjlkmR-229" value="" style="shape=partialRectangle;connectable=0;fillColor=none;top=0;left=0;bottom=0;right=0;editable=1;overflow=hidden;whiteSpace=wrap;html=1;" vertex="1" parent="njJMeFl6jzKbLZJjlkmR-228">
          <mxGeometry width="30" height="30" as="geometry">
            <mxRectangle width="30" height="30" as="alternateBounds" />
          </mxGeometry>
        </mxCell>
        <mxCell id="njJMeFl6jzKbLZJjlkmR-230" value="Resultado_moneda VARCHAR(10)" style="shape=partialRectangle;connectable=0;fillColor=none;top=0;left=0;bottom=0;right=0;align=left;spacingLeft=6;overflow=hidden;whiteSpace=wrap;html=1;" vertex="1" parent="njJMeFl6jzKbLZJjlkmR-228">
          <mxGeometry x="30" width="209" height="30" as="geometry">
            <mxRectangle width="209" height="30" as="alternateBounds" />
          </mxGeometry>
        </mxCell>
        <mxCell id="njJMeFl6jzKbLZJjlkmR-243" style="shape=tableRow;horizontal=0;startSize=0;swimlaneHead=0;swimlaneBody=0;fillColor=none;collapsible=0;dropTarget=0;points=[[0,0.5],[1,0.5]];portConstraint=eastwest;top=0;left=0;right=0;bottom=0;" vertex="1" parent="njJMeFl6jzKbLZJjlkmR-224">
          <mxGeometry y="120" width="239" height="30" as="geometry" />
        </mxCell>
        <mxCell id="njJMeFl6jzKbLZJjlkmR-244" style="shape=partialRectangle;connectable=0;fillColor=none;top=0;left=0;bottom=0;right=0;editable=1;overflow=hidden;whiteSpace=wrap;html=1;" vertex="1" parent="njJMeFl6jzKbLZJjlkmR-243">
          <mxGeometry width="30" height="30" as="geometry">
            <mxRectangle width="30" height="30" as="alternateBounds" />
          </mxGeometry>
        </mxCell>
        <mxCell id="njJMeFl6jzKbLZJjlkmR-245" value="Contador_daÃ±o INT" style="shape=partialRectangle;connectable=0;fillColor=none;top=0;left=0;bottom=0;right=0;align=left;spacingLeft=6;overflow=hidden;whiteSpace=wrap;html=1;" vertex="1" parent="njJMeFl6jzKbLZJjlkmR-243">
          <mxGeometry x="30" width="209" height="30" as="geometry">
            <mxRectangle width="209" height="30" as="alternateBounds" />
          </mxGeometry>
        </mxCell>
        <mxCell id="njJMeFl6jzKbLZJjlkmR-350" value="Mazo" style="shape=table;startSize=30;container=1;collapsible=1;childLayout=tableLayout;fixedRows=1;rowLines=0;fontStyle=1;align=center;resizeLast=1;html=1;fillColor=#d5e8d4;strokeColor=#82b366;" vertex="1" parent="1">
          <mxGeometry x="10" y="300" width="310" height="140" as="geometry" />
        </mxCell>
        <mxCell id="njJMeFl6jzKbLZJjlkmR-351" value="" style="shape=tableRow;horizontal=0;startSize=0;swimlaneHead=0;swimlaneBody=0;fillColor=none;collapsible=0;dropTarget=0;points=[[0,0.5],[1,0.5]];portConstraint=eastwest;top=0;left=0;right=0;bottom=1;" vertex="1" parent="njJMeFl6jzKbLZJjlkmR-350">
          <mxGeometry y="30" width="310" height="30" as="geometry" />
        </mxCell>
        <mxCell id="njJMeFl6jzKbLZJjlkmR-352" value="PK" style="shape=partialRectangle;connectable=0;fillColor=none;top=0;left=0;bottom=0;right=0;fontStyle=1;overflow=hidden;whiteSpace=wrap;html=1;" vertex="1" parent="njJMeFl6jzKbLZJjlkmR-351">
          <mxGeometry width="30" height="30" as="geometry">
            <mxRectangle width="30" height="30" as="alternateBounds" />
          </mxGeometry>
        </mxCell>
        <mxCell id="njJMeFl6jzKbLZJjlkmR-353" value="id_mazo INT NOT NULL" style="shape=partialRectangle;connectable=0;fillColor=none;top=0;left=0;bottom=0;right=0;align=left;spacingLeft=6;fontStyle=5;overflow=hidden;whiteSpace=wrap;html=1;" vertex="1" parent="njJMeFl6jzKbLZJjlkmR-351">
          <mxGeometry x="30" width="280" height="30" as="geometry">
            <mxRectangle width="280" height="30" as="alternateBounds" />
          </mxGeometry>
        </mxCell>
        <mxCell id="njJMeFl6jzKbLZJjlkmR-354" value="" style="shape=tableRow;horizontal=0;startSize=0;swimlaneHead=0;swimlaneBody=0;fillColor=none;collapsible=0;dropTarget=0;points=[[0,0.5],[1,0.5]];portConstraint=eastwest;top=0;left=0;right=0;bottom=0;" vertex="1" parent="njJMeFl6jzKbLZJjlkmR-350">
          <mxGeometry y="60" width="310" height="40" as="geometry" />
        </mxCell>
        <mxCell id="njJMeFl6jzKbLZJjlkmR-355" value="" style="shape=partialRectangle;connectable=0;fillColor=none;top=0;left=0;bottom=0;right=0;editable=1;overflow=hidden;whiteSpace=wrap;html=1;" vertex="1" parent="njJMeFl6jzKbLZJjlkmR-354">
          <mxGeometry width="30" height="40" as="geometry">
            <mxRectangle width="30" height="40" as="alternateBounds" />
          </mxGeometry>
        </mxCell>
        <mxCell id="njJMeFl6jzKbLZJjlkmR-356" value="Tipo ENUM(&#39;baraja&#39;,&#39;premio&#39;,&#39;activa&#39;,&#39;banca&#39;,&#39;descartes&#39;)" style="shape=partialRectangle;connectable=0;fillColor=none;top=0;left=0;bottom=0;right=0;align=left;spacingLeft=6;overflow=hidden;whiteSpace=wrap;html=1;" vertex="1" parent="njJMeFl6jzKbLZJjlkmR-354">
          <mxGeometry x="30" width="280" height="40" as="geometry">
            <mxRectangle width="280" height="40" as="alternateBounds" />
          </mxGeometry>
        </mxCell>
        <mxCell id="93I4x6KxYkw6_KY05Foo-96" style="shape=tableRow;horizontal=0;startSize=0;swimlaneHead=0;swimlaneBody=0;fillColor=none;collapsible=0;dropTarget=0;points=[[0,0.5],[1,0.5]];portConstraint=eastwest;top=0;left=0;right=0;bottom=0;" vertex="1" parent="njJMeFl6jzKbLZJjlkmR-350">
          <mxGeometry y="100" width="310" height="40" as="geometry" />
        </mxCell>
        <mxCell id="93I4x6KxYkw6_KY05Foo-97" style="shape=partialRectangle;connectable=0;fillColor=none;top=0;left=0;bottom=0;right=0;editable=1;overflow=hidden;whiteSpace=wrap;html=1;" vertex="1" parent="93I4x6KxYkw6_KY05Foo-96">
          <mxGeometry width="30" height="40" as="geometry">
            <mxRectangle width="30" height="40" as="alternateBounds" />
          </mxGeometry>
        </mxCell>
        <mxCell id="93I4x6KxYkw6_KY05Foo-98" value="Cantidad_cartas INT" style="shape=partialRectangle;connectable=0;fillColor=none;top=0;left=0;bottom=0;right=0;align=left;spacingLeft=6;overflow=hidden;whiteSpace=wrap;html=1;" vertex="1" parent="93I4x6KxYkw6_KY05Foo-96">
          <mxGeometry x="30" width="280" height="40" as="geometry">
            <mxRectangle width="280" height="40" as="alternateBounds" />
          </mxGeometry>
        </mxCell>
        <mxCell id="93I4x6KxYkw6_KY05Foo-1" value="Carta_Mazo" style="shape=table;startSize=30;container=1;collapsible=1;childLayout=tableLayout;fixedRows=1;rowLines=0;fontStyle=1;align=center;resizeLast=1;html=1;fillColor=#f8cecc;strokeColor=#b85450;" vertex="1" parent="1">
          <mxGeometry x="-350" y="300" width="289.9999999999998" height="180" as="geometry" />
        </mxCell>
        <mxCell id="93I4x6KxYkw6_KY05Foo-2" value="" style="shape=tableRow;horizontal=0;startSize=0;swimlaneHead=0;swimlaneBody=0;fillColor=none;collapsible=0;dropTarget=0;points=[[0,0.5],[1,0.5]];portConstraint=eastwest;top=0;left=0;right=0;bottom=1;" vertex="1" parent="93I4x6KxYkw6_KY05Foo-1">
          <mxGeometry y="30" width="289.9999999999998" height="30" as="geometry" />
        </mxCell>
        <mxCell id="93I4x6KxYkw6_KY05Foo-3" value="PK&lt;br&gt;FK" style="shape=partialRectangle;connectable=0;fillColor=none;top=0;left=0;bottom=0;right=0;fontStyle=1;overflow=hidden;whiteSpace=wrap;html=1;" vertex="1" parent="93I4x6KxYkw6_KY05Foo-2">
          <mxGeometry width="30" height="30" as="geometry">
            <mxRectangle width="30" height="30" as="alternateBounds" />
          </mxGeometry>
        </mxCell>
        <mxCell id="93I4x6KxYkw6_KY05Foo-4" value="id_carta INT NOT NULL" style="shape=partialRectangle;connectable=0;fillColor=none;top=0;left=0;bottom=0;right=0;align=left;spacingLeft=6;fontStyle=5;overflow=hidden;whiteSpace=wrap;html=1;" vertex="1" parent="93I4x6KxYkw6_KY05Foo-2">
          <mxGeometry x="30" width="259.9999999999998" height="30" as="geometry">
            <mxRectangle width="259.9999999999998" height="30" as="alternateBounds" />
          </mxGeometry>
        </mxCell>
        <mxCell id="93I4x6KxYkw6_KY05Foo-32" style="shape=tableRow;horizontal=0;startSize=0;swimlaneHead=0;swimlaneBody=0;fillColor=none;collapsible=0;dropTarget=0;points=[[0,0.5],[1,0.5]];portConstraint=eastwest;top=0;left=0;right=0;bottom=1;" vertex="1" parent="93I4x6KxYkw6_KY05Foo-1">
          <mxGeometry y="60" width="289.9999999999998" height="30" as="geometry" />
        </mxCell>
        <mxCell id="93I4x6KxYkw6_KY05Foo-33" value="PK&lt;br&gt;FK" style="shape=partialRectangle;connectable=0;fillColor=none;top=0;left=0;bottom=0;right=0;fontStyle=1;overflow=hidden;whiteSpace=wrap;html=1;" vertex="1" parent="93I4x6KxYkw6_KY05Foo-32">
          <mxGeometry width="30" height="30" as="geometry">
            <mxRectangle width="30" height="30" as="alternateBounds" />
          </mxGeometry>
        </mxCell>
        <mxCell id="93I4x6KxYkw6_KY05Foo-34" value="id_mazo INT NOT NULL" style="shape=partialRectangle;connectable=0;fillColor=none;top=0;left=0;bottom=0;right=0;align=left;spacingLeft=6;fontStyle=5;overflow=hidden;whiteSpace=wrap;html=1;" vertex="1" parent="93I4x6KxYkw6_KY05Foo-32">
          <mxGeometry x="30" width="259.9999999999998" height="30" as="geometry">
            <mxRectangle width="259.9999999999998" height="30" as="alternateBounds" />
          </mxGeometry>
        </mxCell>
        <mxCell id="93I4x6KxYkw6_KY05Foo-8" value="" style="shape=tableRow;horizontal=0;startSize=0;swimlaneHead=0;swimlaneBody=0;fillColor=none;collapsible=0;dropTarget=0;points=[[0,0.5],[1,0.5]];portConstraint=eastwest;top=0;left=0;right=0;bottom=0;" vertex="1" parent="93I4x6KxYkw6_KY05Foo-1">
          <mxGeometry y="90" width="289.9999999999998" height="30" as="geometry" />
        </mxCell>
        <mxCell id="93I4x6KxYkw6_KY05Foo-9" value="" style="shape=partialRectangle;connectable=0;fillColor=none;top=0;left=0;bottom=0;right=0;editable=1;overflow=hidden;whiteSpace=wrap;html=1;" vertex="1" parent="93I4x6KxYkw6_KY05Foo-8">
          <mxGeometry width="30" height="30" as="geometry">
            <mxRectangle width="30" height="30" as="alternateBounds" />
          </mxGeometry>
        </mxCell>
        <mxCell id="93I4x6KxYkw6_KY05Foo-10" value="Numero_cartas INT" style="shape=partialRectangle;connectable=0;fillColor=none;top=0;left=0;bottom=0;right=0;align=left;spacingLeft=6;overflow=hidden;whiteSpace=wrap;html=1;" vertex="1" parent="93I4x6KxYkw6_KY05Foo-8">
          <mxGeometry x="30" width="259.9999999999998" height="30" as="geometry">
            <mxRectangle width="259.9999999999998" height="30" as="alternateBounds" />
          </mxGeometry>
        </mxCell>
        <mxCell id="Kytd1l6AJFmynb2f_fbJ-16" style="shape=tableRow;horizontal=0;startSize=0;swimlaneHead=0;swimlaneBody=0;fillColor=none;collapsible=0;dropTarget=0;points=[[0,0.5],[1,0.5]];portConstraint=eastwest;top=0;left=0;right=0;bottom=0;" vertex="1" parent="93I4x6KxYkw6_KY05Foo-1">
          <mxGeometry y="120" width="289.9999999999998" height="30" as="geometry" />
        </mxCell>
        <mxCell id="Kytd1l6AJFmynb2f_fbJ-17" style="shape=partialRectangle;connectable=0;fillColor=none;top=0;left=0;bottom=0;right=0;editable=1;overflow=hidden;whiteSpace=wrap;html=1;" vertex="1" parent="Kytd1l6AJFmynb2f_fbJ-16">
          <mxGeometry width="30" height="30" as="geometry">
            <mxRectangle width="30" height="30" as="alternateBounds" />
          </mxGeometry>
        </mxCell>
        <mxCell id="Kytd1l6AJFmynb2f_fbJ-18" value="Max_cartas INT" style="shape=partialRectangle;connectable=0;fillColor=none;top=0;left=0;bottom=0;right=0;align=left;spacingLeft=6;overflow=hidden;whiteSpace=wrap;html=1;" vertex="1" parent="Kytd1l6AJFmynb2f_fbJ-16">
          <mxGeometry x="30" width="259.9999999999998" height="30" as="geometry">
            <mxRectangle width="259.9999999999998" height="30" as="alternateBounds" />
          </mxGeometry>
        </mxCell>
        <mxCell id="Kytd1l6AJFmynb2f_fbJ-19" style="shape=tableRow;horizontal=0;startSize=0;swimlaneHead=0;swimlaneBody=0;fillColor=none;collapsible=0;dropTarget=0;points=[[0,0.5],[1,0.5]];portConstraint=eastwest;top=0;left=0;right=0;bottom=0;" vertex="1" parent="93I4x6KxYkw6_KY05Foo-1">
          <mxGeometry y="150" width="289.9999999999998" height="30" as="geometry" />
        </mxCell>
        <mxCell id="Kytd1l6AJFmynb2f_fbJ-20" style="shape=partialRectangle;connectable=0;fillColor=none;top=0;left=0;bottom=0;right=0;editable=1;overflow=hidden;whiteSpace=wrap;html=1;" vertex="1" parent="Kytd1l6AJFmynb2f_fbJ-19">
          <mxGeometry width="30" height="30" as="geometry">
            <mxRectangle width="30" height="30" as="alternateBounds" />
          </mxGeometry>
        </mxCell>
        <mxCell id="Kytd1l6AJFmynb2f_fbJ-21" value="Fecha_creacion DATETIME" style="shape=partialRectangle;connectable=0;fillColor=none;top=0;left=0;bottom=0;right=0;align=left;spacingLeft=6;overflow=hidden;whiteSpace=wrap;html=1;" vertex="1" parent="Kytd1l6AJFmynb2f_fbJ-19">
          <mxGeometry x="30" width="259.9999999999998" height="30" as="geometry">
            <mxRectangle width="259.9999999999998" height="30" as="alternateBounds" />
          </mxGeometry>
        </mxCell>
        <mxCell id="93I4x6KxYkw6_KY05Foo-43" style="edgeStyle=orthogonalEdgeStyle;rounded=0;orthogonalLoop=1;jettySize=auto;html=1;entryX=1;entryY=0.5;entryDx=0;entryDy=0;endArrow=ERmany;endFill=0;" edge="1" parent="1" source="njJMeFl6jzKbLZJjlkmR-351" target="93I4x6KxYkw6_KY05Foo-32">
          <mxGeometry relative="1" as="geometry" />
        </mxCell>
        <mxCell id="93I4x6KxYkw6_KY05Foo-57" style="edgeStyle=orthogonalEdgeStyle;rounded=0;orthogonalLoop=1;jettySize=auto;html=1;entryX=0;entryY=0.5;entryDx=0;entryDy=0;endArrow=ERmany;endFill=0;" edge="1" parent="1" source="6Y1uYxIbJXJmOSM6ijOe-55" target="93I4x6KxYkw6_KY05Foo-2">
          <mxGeometry relative="1" as="geometry" />
        </mxCell>
        <mxCell id="njJMeFl6jzKbLZJjlkmR-274" value="Juego" style="shape=table;startSize=30;container=1;collapsible=1;childLayout=tableLayout;fixedRows=1;rowLines=0;fontStyle=1;align=center;resizeLast=1;html=1;fillColor=#f8cecc;strokeColor=#b85450;" vertex="1" parent="1">
          <mxGeometry x="414" y="220" width="180" height="150" as="geometry" />
        </mxCell>
        <mxCell id="njJMeFl6jzKbLZJjlkmR-275" value="" style="shape=tableRow;horizontal=0;startSize=0;swimlaneHead=0;swimlaneBody=0;fillColor=none;collapsible=0;dropTarget=0;points=[[0,0.5],[1,0.5]];portConstraint=eastwest;top=0;left=0;right=0;bottom=1;" vertex="1" parent="njJMeFl6jzKbLZJjlkmR-274">
          <mxGeometry y="30" width="180" height="30" as="geometry" />
        </mxCell>
        <mxCell id="njJMeFl6jzKbLZJjlkmR-276" value="PK&lt;br&gt;FK" style="shape=partialRectangle;connectable=0;fillColor=none;top=0;left=0;bottom=0;right=0;fontStyle=1;overflow=hidden;whiteSpace=wrap;html=1;" vertex="1" parent="njJMeFl6jzKbLZJjlkmR-275">
          <mxGeometry width="30" height="30" as="geometry">
            <mxRectangle width="30" height="30" as="alternateBounds" />
          </mxGeometry>
        </mxCell>
        <mxCell id="njJMeFl6jzKbLZJjlkmR-277" value="id_partida INT&lt;div&gt;NOT NULL&lt;/div&gt;" style="shape=partialRectangle;connectable=0;fillColor=none;top=0;left=0;bottom=0;right=0;align=left;spacingLeft=6;fontStyle=5;overflow=hidden;whiteSpace=wrap;html=1;" vertex="1" parent="njJMeFl6jzKbLZJjlkmR-275">
          <mxGeometry x="30" width="150" height="30" as="geometry">
            <mxRectangle width="150" height="30" as="alternateBounds" />
          </mxGeometry>
        </mxCell>
        <mxCell id="njJMeFl6jzKbLZJjlkmR-293" style="shape=tableRow;horizontal=0;startSize=0;swimlaneHead=0;swimlaneBody=0;fillColor=none;collapsible=0;dropTarget=0;points=[[0,0.5],[1,0.5]];portConstraint=eastwest;top=0;left=0;right=0;bottom=1;" vertex="1" parent="njJMeFl6jzKbLZJjlkmR-274">
          <mxGeometry y="60" width="180" height="30" as="geometry" />
        </mxCell>
        <mxCell id="njJMeFl6jzKbLZJjlkmR-294" value="PK&lt;br&gt;FK" style="shape=partialRectangle;connectable=0;fillColor=none;top=0;left=0;bottom=0;right=0;fontStyle=1;overflow=hidden;whiteSpace=wrap;html=1;" vertex="1" parent="njJMeFl6jzKbLZJjlkmR-293">
          <mxGeometry width="30" height="30" as="geometry">
            <mxRectangle width="30" height="30" as="alternateBounds" />
          </mxGeometry>
        </mxCell>
        <mxCell id="njJMeFl6jzKbLZJjlkmR-295" value="id_jugador_1 INT&lt;div&gt;NOT NULL&lt;/div&gt;" style="shape=partialRectangle;connectable=0;fillColor=none;top=0;left=0;bottom=0;right=0;align=left;spacingLeft=6;fontStyle=5;overflow=hidden;whiteSpace=wrap;html=1;" vertex="1" parent="njJMeFl6jzKbLZJjlkmR-293">
          <mxGeometry x="30" width="150" height="30" as="geometry">
            <mxRectangle width="150" height="30" as="alternateBounds" />
          </mxGeometry>
        </mxCell>
        <mxCell id="93I4x6KxYkw6_KY05Foo-59" style="shape=tableRow;horizontal=0;startSize=0;swimlaneHead=0;swimlaneBody=0;fillColor=none;collapsible=0;dropTarget=0;points=[[0,0.5],[1,0.5]];portConstraint=eastwest;top=0;left=0;right=0;bottom=1;" vertex="1" parent="njJMeFl6jzKbLZJjlkmR-274">
          <mxGeometry y="90" width="180" height="30" as="geometry" />
        </mxCell>
        <mxCell id="93I4x6KxYkw6_KY05Foo-60" value="PK&lt;br&gt;FK" style="shape=partialRectangle;connectable=0;fillColor=none;top=0;left=0;bottom=0;right=0;fontStyle=1;overflow=hidden;whiteSpace=wrap;html=1;" vertex="1" parent="93I4x6KxYkw6_KY05Foo-59">
          <mxGeometry width="30" height="30" as="geometry">
            <mxRectangle width="30" height="30" as="alternateBounds" />
          </mxGeometry>
        </mxCell>
        <mxCell id="93I4x6KxYkw6_KY05Foo-61" value="id_jugador_2 INT&lt;br&gt;NOT NULL" style="shape=partialRectangle;connectable=0;fillColor=none;top=0;left=0;bottom=0;right=0;align=left;spacingLeft=6;fontStyle=5;overflow=hidden;whiteSpace=wrap;html=1;" vertex="1" parent="93I4x6KxYkw6_KY05Foo-59">
          <mxGeometry x="30" width="150" height="30" as="geometry">
            <mxRectangle width="150" height="30" as="alternateBounds" />
          </mxGeometry>
        </mxCell>
        <mxCell id="njJMeFl6jzKbLZJjlkmR-347" style="shape=tableRow;horizontal=0;startSize=0;swimlaneHead=0;swimlaneBody=0;fillColor=none;collapsible=0;dropTarget=0;points=[[0,0.5],[1,0.5]];portConstraint=eastwest;top=0;left=0;right=0;bottom=1;" vertex="1" parent="njJMeFl6jzKbLZJjlkmR-274">
          <mxGeometry y="120" width="180" height="30" as="geometry" />
        </mxCell>
        <mxCell id="njJMeFl6jzKbLZJjlkmR-348" value="FK" style="shape=partialRectangle;connectable=0;fillColor=none;top=0;left=0;bottom=0;right=0;fontStyle=1;overflow=hidden;whiteSpace=wrap;html=1;" vertex="1" parent="njJMeFl6jzKbLZJjlkmR-347">
          <mxGeometry width="30" height="30" as="geometry">
            <mxRectangle width="30" height="30" as="alternateBounds" />
          </mxGeometry>
        </mxCell>
        <mxCell id="njJMeFl6jzKbLZJjlkmR-349" value="id_mazo INT&lt;div&gt;NOT NULL&lt;/div&gt;" style="shape=partialRectangle;connectable=0;fillColor=none;top=0;left=0;bottom=0;right=0;align=left;spacingLeft=6;fontStyle=5;overflow=hidden;whiteSpace=wrap;html=1;" vertex="1" parent="njJMeFl6jzKbLZJjlkmR-347">
          <mxGeometry x="30" width="150" height="30" as="geometry">
            <mxRectangle width="150" height="30" as="alternateBounds" />
          </mxGeometry>
        </mxCell>
        <mxCell id="93I4x6KxYkw6_KY05Foo-68" style="edgeStyle=orthogonalEdgeStyle;rounded=0;orthogonalLoop=1;jettySize=auto;html=1;entryX=1;entryY=0.5;entryDx=0;entryDy=0;endArrow=ERmany;endFill=0;exitX=1;exitY=0.5;exitDx=0;exitDy=0;" edge="1" parent="1" source="njJMeFl6jzKbLZJjlkmR-60" target="njJMeFl6jzKbLZJjlkmR-275">
          <mxGeometry relative="1" as="geometry">
            <mxPoint x="681" y="240" as="sourcePoint" />
            <Array as="points">
              <mxPoint x="630" y="455" />
              <mxPoint x="630" y="265" />
            </Array>
          </mxGeometry>
        </mxCell>
        <mxCell id="93I4x6KxYkw6_KY05Foo-70" style="edgeStyle=orthogonalEdgeStyle;rounded=0;orthogonalLoop=1;jettySize=auto;html=1;entryX=0;entryY=0.5;entryDx=0;entryDy=0;endArrow=ERmany;endFill=0;" edge="1" parent="1" source="6Y1uYxIbJXJmOSM6ijOe-15" target="93I4x6KxYkw6_KY05Foo-59">
          <mxGeometry relative="1" as="geometry" />
        </mxCell>
        <mxCell id="93I4x6KxYkw6_KY05Foo-75" style="edgeStyle=orthogonalEdgeStyle;rounded=0;orthogonalLoop=1;jettySize=auto;html=1;entryX=0;entryY=0.5;entryDx=0;entryDy=0;endArrow=ERmany;endFill=0;" edge="1" parent="1" source="6Y1uYxIbJXJmOSM6ijOe-15" target="njJMeFl6jzKbLZJjlkmR-274">
          <mxGeometry relative="1" as="geometry" />
        </mxCell>
        <mxCell id="93I4x6KxYkw6_KY05Foo-94" value="" style="edgeStyle=entityRelationEdgeStyle;fontSize=12;html=1;endArrow=ERoneToMany;rounded=0;exitX=0;exitY=0.5;exitDx=0;exitDy=0;entryX=1;entryY=0.5;entryDx=0;entryDy=0;" edge="1" parent="1" source="njJMeFl6jzKbLZJjlkmR-60" target="njJMeFl6jzKbLZJjlkmR-327">
          <mxGeometry width="100" height="100" relative="1" as="geometry">
            <mxPoint x="830" y="500" as="sourcePoint" />
            <mxPoint x="930" y="400" as="targetPoint" />
          </mxGeometry>
        </mxCell>
        <mxCell id="EEIAwPUoNharYIAxipc9-1" style="edgeStyle=orthogonalEdgeStyle;rounded=0;orthogonalLoop=1;jettySize=auto;html=1;exitX=1;exitY=0.5;exitDx=0;exitDy=0;entryX=0;entryY=0.5;entryDx=0;entryDy=0;endArrow=ERmany;endFill=0;" edge="1" parent="1" source="njJMeFl6jzKbLZJjlkmR-351" target="njJMeFl6jzKbLZJjlkmR-347">
          <mxGeometry relative="1" as="geometry" />
        </mxCell>
      </root>
    </mxGraphModel>
  </diagram>
</mxfile>
